<svg width="1280" height="510" viewBox="0 0 1280 510" fill="none" xmlns="http://www.w3.org/2000/svg">
<path d="M-17.91 552L239.73 153H331.5L429.54 552H337.2L259.68 198.6H296.16L80.7 552H-17.91ZM88.68 466.5L126.3 396.39H332.07L342.9 466.5H88.68ZM532.314 552L464.484 245.34H552.264L608.694 509.25H563.094L725.544 245.34H814.464L624.084 552H532.314ZM789.758 552L850.748 245.34H939.098L878.108 552H789.758ZM910.028 202.59C894.448 202.59 881.908 198.22 872.408 189.48C862.908 180.36 858.158 169.34 858.158 156.42C858.158 141.22 863.478 128.68 874.118 118.8C885.138 108.54 899.388 103.41 916.868 103.41C932.448 103.41 944.988 107.78 954.488 116.52C964.368 124.88 969.308 135.33 969.308 147.87C969.308 164.21 963.798 177.51 952.778 187.77C942.138 197.65 927.888 202.59 910.028 202.59ZM1120.82 556.56C1089.66 556.56 1062.49 550.86 1039.31 539.46C1016.13 528.06 998.076 512.1 985.156 491.58C972.616 471.06 966.346 446.93 966.346 419.19C966.346 384.99 974.326 354.59 990.286 327.99C1006.25 301.01 1028.1 279.73 1055.84 264.15C1083.96 248.57 1115.88 240.78 1151.6 240.78C1183.14 240.78 1210.31 246.48 1233.11 257.88C1256.29 269.28 1274.15 285.24 1286.69 305.76C1299.61 325.9 1306.07 350.03 1306.07 378.15C1306.07 411.97 1298.09 442.37 1282.13 469.35C1266.17 496.33 1244.32 517.61 1216.58 533.19C1188.84 548.77 1156.92 556.56 1120.82 556.56ZM1126.52 483.6C1144 483.6 1159.39 479.42 1172.69 471.06C1186.37 462.32 1197.01 450.35 1204.61 435.15C1212.21 419.95 1216.01 402.28 1216.01 382.14C1216.01 361.62 1209.93 345.09 1197.77 332.55C1185.61 320.01 1168.51 313.74 1146.47 313.74C1128.99 313.74 1113.41 318.11 1099.73 326.85C1086.43 335.21 1075.79 346.99 1067.81 362.19C1060.21 377.39 1056.41 395.06 1056.41 415.2C1056.41 436.1 1062.49 452.82 1074.65 465.36C1086.81 477.52 1104.1 483.6 1126.52 483.6Z" fill="white" fill-opacity="0.1"/>
<path d="M-68.91 553L188.73 154H280.5L378.54 553H286.2L208.68 199.6H245.16L29.7 553H-68.91ZM37.68 467.5L75.3 397.39H281.07L291.9 467.5H37.68ZM481.314 553L413.484 246.34H501.264L557.694 510.25H512.094L674.544 246.34H763.464L573.084 553H481.314ZM738.758 553L799.748 246.34H888.098L827.108 553H738.758ZM859.028 203.59C843.448 203.59 830.908 199.22 821.408 190.48C811.908 181.36 807.158 170.34 807.158 157.42C807.158 142.22 812.478 129.68 823.118 119.8C834.138 109.54 848.388 104.41 865.868 104.41C881.448 104.41 893.988 108.78 903.488 117.52C913.368 125.88 918.308 136.33 918.308 148.87C918.308 165.21 912.798 178.51 901.778 188.77C891.138 198.65 876.888 203.59 859.028 203.59ZM1069.82 557.56C1038.66 557.56 1011.49 551.86 988.306 540.46C965.126 529.06 947.076 513.1 934.156 492.58C921.616 472.06 915.346 447.93 915.346 420.19C915.346 385.99 923.326 355.59 939.286 328.99C955.246 302.01 977.096 280.73 1004.84 265.15C1032.96 249.57 1064.88 241.78 1100.6 241.78C1132.14 241.78 1159.31 247.48 1182.11 258.88C1205.29 270.28 1223.15 286.24 1235.69 306.76C1248.61 326.9 1255.07 351.03 1255.07 379.15C1255.07 412.97 1247.09 443.37 1231.13 470.35C1215.17 497.33 1193.32 518.61 1165.58 534.19C1137.84 549.77 1105.92 557.56 1069.82 557.56ZM1075.52 484.6C1093 484.6 1108.39 480.42 1121.69 472.06C1135.37 463.32 1146.01 451.35 1153.61 436.15C1161.21 420.95 1165.01 403.28 1165.01 383.14C1165.01 362.62 1158.93 346.09 1146.77 333.55C1134.61 321.01 1117.51 314.74 1095.47 314.74C1077.99 314.74 1062.41 319.11 1048.73 327.85C1035.43 336.21 1024.79 347.99 1016.81 363.19C1009.21 378.39 1005.41 396.06 1005.41 416.2C1005.41 437.1 1011.49 453.82 1023.65 466.36C1035.81 478.52 1053.1 484.6 1075.52 484.6Z" fill="white"/>
</svg>
