<svg width="405" height="140" viewBox="0 0 405 140" fill="none" xmlns="http://www.w3.org/2000/svg">
<path d="M140 70C140 108.66 108.66 140 70 140C31.3401 140 0 108.66 0 70C0 31.3401 31.3401 0 70 0C108.66 0 140 31.3401 140 70Z" fill="#121212"/>
<path d="M54.7992 41.8365C61.9778 34.9042 73.7019 41.9488 70.9512 51.5416L61.6737 83.896C60.1889 89.0744 54.7873 92.0686 49.6089 90.5837L30.9291 85.2273C23.7112 83.1577 21.4406 74.0506 26.8419 68.8346L54.7992 41.8365Z" fill="#FF0000"/>
<path d="M68.8505 95.9787C65.8044 95.1053 64.0432 91.9278 64.9166 88.8818L79.4328 38.2578C81.0509 32.615 89.0954 32.7554 90.5155 38.4513L105.227 97.4561C106.296 101.742 102.324 105.577 98.0783 104.36L68.8505 95.9787Z" fill="white"/>
<path d="M228.7 91H196.1L187 106H169.7L215 36H231L248.2 106H232L228.7 91ZM226 78.7L220.1 51.7L203.6 78.7H226ZM315.73 52.2L282.33 106H266.23L254.33 52.2H269.73L277.53 88.9L300.13 52.2H315.73ZM322.096 52.2H337.596L326.896 106H311.396L322.096 52.2ZM332.496 44.7C329.829 44.7 327.629 43.9333 325.896 42.4C324.229 40.8 323.396 38.8667 323.396 36.6C323.396 33.9333 324.329 31.7333 326.196 30C328.129 28.2 330.629 27.3 333.696 27.3C336.429 27.3 338.629 28.0667 340.296 29.6C342.029 31.0667 342.896 32.9 342.896 35.1C342.896 37.9667 341.929 40.3 339.996 42.1C338.063 43.8333 335.563 44.7 332.496 44.7ZM369.477 106.8C364.077 106.8 359.31 105.8 355.177 103.8C351.11 101.8 347.943 99 345.677 95.4C343.477 91.7333 342.377 87.5 342.377 82.7C342.377 76.7667 343.777 71.4333 346.577 66.7C349.377 61.9667 353.243 58.2333 358.177 55.5C363.11 52.7667 368.677 51.4 374.877 51.4C380.343 51.4 385.11 52.4 389.177 54.4C393.243 56.4 396.377 59.2333 398.577 62.9C400.843 66.5 401.977 70.7 401.977 75.5C401.977 81.4333 400.577 86.7667 397.777 91.5C395.043 96.2333 391.177 99.9667 386.177 102.7C381.243 105.433 375.677 106.8 369.477 106.8ZM370.477 93.9C373.477 93.9 376.177 93.1667 378.577 91.7C380.977 90.1667 382.843 88.0667 384.177 85.4C385.51 82.7333 386.177 79.6667 386.177 76.2C386.177 72.5333 385.11 69.6333 382.977 67.5C380.843 65.3667 377.843 64.3 373.977 64.3C370.91 64.3 368.177 65.0667 365.777 66.6C363.377 68.0667 361.51 70.1333 360.177 72.8C358.843 75.4667 358.177 78.5333 358.177 82C358.177 85.6667 359.243 88.5667 361.377 90.7C363.577 92.8333 366.61 93.9 370.477 93.9Z" fill="white"/>
</svg>
