<svg width="143" height="57" viewBox="0 0 143 57" fill="none" xmlns="http://www.w3.org/2000/svg">
<path d="M56.9397 28.5C56.9397 44.2401 44.1933 57 28.4698 57C12.7464 57 0 44.2401 0 28.5C0 12.7599 12.7464 0 28.4698 0C44.1933 0 56.9397 12.7599 56.9397 28.5Z" fill="#121212"/>
<path d="M22.733 16.3044C25.3796 13.7459 29.7021 16.3458 28.688 19.8863L24.4309 34.7482C23.8835 36.6594 21.892 37.7645 19.9828 37.2165L11.4114 34.756C8.75026 33.9922 7.91311 30.631 9.90449 28.7059L22.733 16.3044Z" fill="#FF0000"/>
<path d="M27.6287 39.3614C26.2922 38.9777 25.5195 37.5822 25.9027 36.2444L31.567 16.4699C32.2769 13.9915 35.8063 14.0532 36.4294 16.5548L42.1698 39.6031C42.6386 41.4853 40.8962 43.1698 39.0334 42.6351L27.6287 39.3614Z" fill="white"/>
<path d="M80.6865 36H68.9629L65.6904 41.4H59.469L75.7597 16.2H81.5136L87.6991 41.4H81.8732L80.6865 36ZM79.7155 31.572L77.5938 21.852L71.66 31.572H79.7155Z" fill="#121212"/>
<path d="M111.984 22.032L99.973 41.4H94.1831L89.9037 22.032H95.4418L98.2468 35.244L106.374 22.032H111.984Z" fill="#121212"/>
<path d="M114.273 22.032H119.848L116 41.4H110.426L114.273 22.032ZM118.014 19.332C117.055 19.332 116.263 19.056 115.64 18.504C115.041 17.928 114.741 17.232 114.741 16.416C114.741 15.456 115.077 14.664 115.748 14.04C116.443 13.392 117.342 13.068 118.445 13.068C119.428 13.068 120.219 13.344 120.819 13.896C121.442 14.424 121.754 15.084 121.754 15.876C121.754 16.908 121.406 17.748 120.711 18.396C120.015 19.02 119.116 19.332 118.014 19.332Z" fill="#121212"/>
<path d="M131.312 41.688C129.37 41.688 127.656 41.328 126.17 40.608C124.707 39.888 123.569 38.88 122.753 37.584C121.962 36.264 121.567 34.74 121.567 33.012C121.567 30.876 122.07 28.956 123.077 27.252C124.084 25.548 125.475 24.204 127.249 23.22C129.023 22.236 131.025 21.744 133.254 21.744C135.22 21.744 136.934 22.104 138.397 22.824C139.859 23.544 140.986 24.564 141.777 25.884C142.592 27.18 143 28.692 143 30.42C143 32.556 142.497 34.476 141.49 36.18C140.507 37.884 139.116 39.228 137.318 40.212C135.544 41.196 133.542 41.688 131.312 41.688ZM131.672 37.044C132.751 37.044 133.722 36.78 134.585 36.252C135.448 35.7 136.119 34.944 136.599 33.984C137.078 33.024 137.318 31.92 137.318 30.672C137.318 29.352 136.934 28.308 136.167 27.54C135.4 26.772 134.321 26.388 132.931 26.388C131.828 26.388 130.845 26.664 129.982 27.216C129.119 27.744 128.447 28.488 127.968 29.448C127.488 30.408 127.249 31.512 127.249 32.76C127.249 34.08 127.632 35.124 128.399 35.892C129.191 36.66 130.281 37.044 131.672 37.044Z" fill="#121212"/>
</svg>
