<svg width="200" height="200" viewBox="0 0 200 200" fill="none" xmlns="http://www.w3.org/2000/svg">
<path d="M200 100C200 155.228 155.228 200 100 200C44.7715 200 0 155.228 0 100C0 44.7715 44.7715 0 100 0C155.228 0 200 44.7715 200 100Z" fill="#121212"/>
<path d="M78.2846 59.7664C88.5398 49.8631 105.288 59.9268 101.359 73.6309L88.1053 119.851C85.9841 127.249 78.2675 131.527 70.8699 129.405L44.1844 121.753C33.8732 118.797 30.6294 105.787 38.3456 98.3351L78.2846 59.7664Z" fill="#FF0000"/>
<path d="M98.3579 137.112C94.0063 135.865 91.4902 131.326 92.738 126.974L113.475 54.654C115.787 46.5928 127.279 46.7934 129.308 54.9304L150.324 139.223C151.851 145.345 146.177 150.824 140.112 149.085L98.3579 137.112Z" fill="white"/>
</svg>
